<?xml version="1.0" encoding="UTF-8" standalone="no"?>
<!DOCTYPE svg PUBLIC "-//W3C//DTD SVG 1.1//EN" "http://www.w3.org/Graphics/SVG/1.1/DTD/svg11.dtd">
<svg version="1.1" xmlns="http://www.w3.org/2000/svg" xmlns:xlink="http://www.w3.org/1999/xlink" preserveAspectRatio="xMidYMid meet" viewBox="0 0 512 512" width="512" height="512"><defs><path d="M510.85 257C510.85 397.74 396.65 512 256 512C115.35 512 1.15 397.74 1.15 257C1.15 116.26 115.35 2 256 2C396.65 2 510.85 116.26 510.85 257Z" id="a1CdMXZRUz"></path><radialGradient id="gradientc1C09yZGcc" gradientUnits="userSpaceOnUse" cx="256" cy="272" r="510"><stop style="stop-color: #bffff1;stop-opacity: 1" offset="0%"></stop><stop style="stop-color: #233632;stop-opacity: 1" offset="100%"></stop></radialGradient><path d="M384 416L256 48L128 416L384 416Z" id="b17QQ0d51"></path><path d="M368 96L256 352L256 352L368 96Z" id="iuwYYlwIB"></path><path d="M341.14 164.43L329.23 159.27L325.8 140.34L343.25 147.91L343.25 147.91L364.95 157.32L348.8 167.75L348.8 167.75L341.14 164.43Z" id="d17nsoGtE1"></path><path d="M441.99 162.27C441.99 239.75 358.65 302.65 256 302.65C153.35 302.65 70.01 239.75 70.01 162.27C70.01 84.8 153.35 21.89 256 21.89C358.65 21.89 441.99 84.8 441.99 162.27Z" id="abTu65KFg"></path><linearGradient id="gradientawnhgbYu5" gradientUnits="userSpaceOnUse" x1="256" y1="170.53" x2="256" y2="302.65"><stop style="stop-color: #c9fff5;stop-opacity: 0.15" offset="0%"></stop><stop style="stop-color: #80a89f;stop-opacity: 0" offset="100%"></stop></linearGradient></defs><g><g><g><use xlink:href="#a1CdMXZRUz" opacity="1" fill="url(#gradientc1C09yZGcc)"></use></g><g><g><use xlink:href="#b17QQ0d51" opacity="0.83" fill-opacity="0" stroke="#25423f" stroke-width="8" stroke-opacity="1"></use></g></g><g><g><use xlink:href="#iuwYYlwIB" opacity="1" fill-opacity="0" stroke="#3c5e58" stroke-width="8" stroke-opacity="1"></use></g></g><g><use xlink:href="#d17nsoGtE1" opacity="1" fill="#3c5e58" fill-opacity="1"></use></g><g><use xlink:href="#abTu65KFg" opacity="1" fill="url(#gradientawnhgbYu5)"></use></g></g></g></svg>